<?xml version="1.0" encoding="utf-8"?>
<!-- Generator: Adobe Illustrator 22.0.0, SVG Export Plug-In . SVG Version: 6.00 Build 0)  -->
<svg version="1.1" id="Layer_1" xmlns="http://www.w3.org/2000/svg" xmlns:xlink="http://www.w3.org/1999/xlink" x="0px" y="0px"
	 viewBox="0 0 557 557.1" style="enable-background:new 0 0 557 557.1;" xml:space="preserve">
<style type="text/css">
	.st0{fill:#34495E;}
	.st1{fill:#FFFFFF;}
</style>
<circle class="st0" cx="278.5" cy="278.7" r="252.3"/>
<g>
	<path class="st1" d="M185.8,337.4v33.7h-29v-21.9C166.2,346.1,176,342.1,185.8,337.4z"/>
	<path class="st1" d="M227.8,316.7v54.4h-29v-39.2C208.2,327.2,218,322.1,227.8,316.7z"/>
	<path class="st1" d="M269.3,291.6v79.5h-29v-61.5C250.1,304.1,259.5,297.9,269.3,291.6z"/>
	<path class="st1" d="M310.8,261.8v109.3h-29v-87.8C292,276.3,301.4,269.2,310.8,261.8z"/>
	<path class="st1" d="M352.8,224.2v146.9h-29.4V251.2C333.9,242.6,343.7,233.6,352.8,224.2z"/>
	<path class="st1" d="M399.4,158v213.1h-29V204.6C382.9,189.3,393.1,173.6,399.4,158z"/>
	<path class="st1" d="M135.7,326.1c85-25.1,232-123,248.8-201.8l-17.2,12.9l-8.2-10.2l35.3-27l27,35.7l-10.2,8.2l-12.9-17.2
		C379.5,212.5,225.5,316,135.8,340.6L135.7,326.1L135.7,326.1z"/>
	<polygon class="st1" points="135.7,382.5 420.5,382.5 420.5,395.8 135.7,395.8 	"/>
</g>
</svg>
