<?xml version="1.0" encoding="utf-8"?>
<!-- Generator: Adobe Illustrator 22.0.0, SVG Export Plug-In . SVG Version: 6.00 Build 0)  -->
<svg version="1.1" id="Layer_1" xmlns="http://www.w3.org/2000/svg" xmlns:xlink="http://www.w3.org/1999/xlink" x="0px" y="0px"
	 viewBox="0 0 76.4 76.4" style="enable-background:new 0 0 76.4 76.4;" xml:space="preserve">
<style type="text/css">
	.st0{fill:#34495E;}
	.st1{fill:#FFFFFF;}
</style>
<g>
	<circle class="st0" cx="38.2" cy="38.2" r="34.6"/>
	<path class="st1" d="M55,20.1H21.4c-1.7,0-3,1.3-3,3v30.2c0,1.7,1.3,3,3,3H55c1.7,0,3-1.3,3-3V23.1C58,21.5,56.6,20.1,55,20.1z
		 M28.8,54.1h-7.4c-0.5,0-0.9-0.4-0.9-0.9V31.6h8.3L28.8,54.1L28.8,54.1z M55.8,53.3c0,0.5-0.4,0.9-0.9,0.9h-24V31.6h24.9V53.3
		L55.8,53.3z M55.8,29.5H20.6v-6.4c0-0.5,0.4-0.9,0.9-0.9h33.6c0.5,0,0.9,0.4,0.9,0.9v6.4H55.8z M52.4,24.3c-0.9,0-1.6,0.7-1.6,1.6
		s0.7,1.6,1.6,1.6c0.9,0,1.6-0.7,1.6-1.6S53.3,24.3,52.4,24.3z M47.6,24.3c-0.9,0-1.6,0.7-1.6,1.6s0.7,1.6,1.6,1.6s1.6-0.7,1.6-1.6
		S48.4,24.3,47.6,24.3z M42.8,24.3c-0.9,0-1.6,0.7-1.6,1.6s0.7,1.6,1.6,1.6s1.6-0.7,1.6-1.6S43.6,24.3,42.8,24.3z"/>
</g>
</svg>
