<?xml version="1.0" encoding="utf-8"?>
<!-- Generator: Adobe Illustrator 22.0.0, SVG Export Plug-In . SVG Version: 6.00 Build 0)  -->
<svg version="1.1" id="Layer_1" xmlns="http://www.w3.org/2000/svg" xmlns:xlink="http://www.w3.org/1999/xlink" x="0px" y="0px"
	 viewBox="0 0 76.4 76.3" style="enable-background:new 0 0 76.4 76.3;" xml:space="preserve">
<style type="text/css">
	.st0{fill:#34495E;}
	.st1{fill:#FFFFFF;}
</style>
<title>87all</title>
<g>
	<circle class="st0" cx="38.2" cy="38" r="34.6"/>
	<g>
		<rect x="28.9" y="28.8" class="st1" width="5.6" height="2.1"/>
		<path class="st1" d="M59.9,55.4c0-5.3-4.3-9.6-9.6-9.6h-2.9c-3.4,0-6.5,1.8-8.2,4.7H24.6v-32h16V28h9v3.4
			c-2.7-0.3-5.3,1.1-6.6,3.4H29v2.1h13.2c-0.3,1.3-0.1,2.7,0.4,3.9H28.9v2.1h14.2v-1.2c2,3.2,6.1,4.2,9.3,2.3c3.2-2,4.2-6.1,2.3-9.3
			c-0.8-1.3-2-2.3-3.5-2.9h0.5v-5.6l-9.6-9.8H22.5v36.2h15.8c-0.3,0.9-0.4,1.9-0.4,2.8v2.9h22V55.4z M53.6,38.1
			c0,2.6-2.1,4.7-4.7,4.7s-4.7-2.1-4.7-4.7s2.1-4.7,4.7-4.7C51.5,33.4,53.6,35.5,53.6,38.1L53.6,38.1L53.6,38.1z M42.7,19.9l5.9,6
			h-5.8L42.7,19.9z M57.8,56.1H40v-0.8c0-4.1,3.4-7.5,7.5-7.5h2.9c4.1,0,7.5,3.3,7.5,7.5L57.8,56.1z"/>
	</g>
</g>
</svg>
